<svg xmlns="http://www.w3.org/2000/svg" xml:space="preserve" id="api" width="24" height="24" x="0" y="0" baseProfile="tiny" overflow="visible" version="1.1" viewBox="0 0 24 24">
  <g>
    <rect width="24" height="24" fill="none"></rect>
    <g transform="translate(1 8)">
      <path fill="#5C85DE" fill-rule="evenodd" d="M2-1.9c-1.1 0-2.3 1.1-2.3 2.2V10H2V5.5h2.2V10h2.2V.3c0-1.1-1.1-2.2-2.3-2.2H2L2-1.9zM2 3.2v-3h2.2v3H2L2 3.2zM10.3-2C9.1-2 8-.9 8 .2V10l2.2 0V5.5h2.2c1.1 0 2.3-1.1 2.3-2.2l0-3c0-1.1-1.1-2.2-2.3-2.2H10.3L10.3-2zM10.2 3.2v-3h2.2v3H10.2L10.2 3.2z"></path>
      <polygon fill="#5C85DE" fill-rule="evenodd" points="18.5 .3 18.5 7.8 16.2 7.8 16.2 10 23 10 23 7.8 20.8 7.8 20.8 .3 23 .3 23 -1.9 16.2 -1.9 16.2 .3"></polygon>
      <polygon fill="#3367D6" fill-rule="evenodd" points="2 5.5 2 3.2 3.5 3.2"></polygon>
      <polygon fill="#3367D6" fill-rule="evenodd" points="10.2 5.5 10.2 3.2 11.5 3.2"></polygon>
      <polygon fill="#3367D6" fill-rule="evenodd" points="18.5 1.8 18.5 1.8 18.5 .3 20.8 .3"></polygon>
    </g>
  </g>
</svg>
